<svg width="25" height="22" viewBox="0 0 25 22" fill="none" xmlns="http://www.w3.org/2000/svg">
<path d="M13.9723 1.34963C13.3064 0.216789 11.6982 0.216789 11.0324 1.34963L0.746939 18.8496C0.0613895 20.0161 0.884418 21.5 2.21689 21.5H22.7877C24.1202 21.5 24.9432 20.0161 24.2577 18.8496L13.9723 1.34963ZM12.5 6.5C13.3031 6.5 13.9307 7.19343 13.8507 7.99256L13.3246 13.2537C13.2823 13.6774 12.9258 14 12.5 14C12.0742 14 11.7177 13.6774 11.6754 13.2537L11.1493 7.99256C11.0693 7.19343 11.6969 6.5 12.5 6.5ZM12.5023 15.5C13.3307 15.5 14.0023 16.1716 14.0023 17C14.0023 17.8284 13.3307 18.5 12.5023 18.5C11.6739 18.5 11.0023 17.8284 11.0023 17C11.0023 16.1716 11.6739 15.5 12.5023 15.5Z" fill="#FF375F"/>
</svg>
